Den prisbelönte naturfotografen Mattias Klum och den prisbelönte dokumentärfilmaren Folke Rydén har tillsammans med tre unga följeslagare rest i Linnés och hans lärljungars fotspår och anda. Avsikten är att motivera och inspirera nya generationer. I centrum står den livsavgörande frågan: Hur ska vi handla idag för att överleva imorgon och hur kan vetenskap och forskning bidra till en bättre värld?




General
Complete name                    : E:Expidition.Linné.2007.DVDRip.x264-nes.mkv
Format                           : Matroska
File size                        : 1.21 GiB
Duration                         : 1h 12mn
Overall bit rate                 : 2 398 Kbps
Movie name                       : Done with AutoMKV 0.98.4 http://forum.doom9.org/showthread.php?t=140178
Encoded date                     : UTC 2009-11-02 20:09:47
Writing application              : mkvmerge v2.9.8 ('C'est le bon') built on Aug 13 2009 12:49:06
Writing library                  : libebml v0.7.7 + libmatroska v0.8.1

Video
ID                               : 1
Format                           : AVC
Format/Info                      : Advanced Video Codec
Format profile                   : High@L4.0
Format settings, CABAC           : Yes
Format settings, ReFrames        : 3 frames
Muxing mode                      : Container profile=Unknown@4.0
Codec ID                         : V_MPEG4/ISO/AVC
Duration                         : 1h 12mn
Bit rate                         : 1 966 Kbps
Width                            : 720 pixels
Height                           : 576 pixels
Display aspect ratio             : 16:9
Original display aspect ratio    : 5:4
Frame rate                       : 25.000 fps
Standard                         : PAL
Resolution                       : 24 bits
Colorimetry                      : 4:2:0
Scan type                        : Progressive
Bits/(Pixel*Frame)               : 0.190
Stream size                      : 1 014 MiB (82%)
Writing library                  : x264 core 66 r1092 60f4cd8
Encoding settings                : cabac=1 / ref=3 / deblock=1:-1:-1 / analyse=0x3:0x113 / me=hex / subme=9 / psy_rd=1.1:0.0 / mixed_ref=0 / me_range=16 / chroma_me=0 / trellis=1 / 8x8dct=1 / cqm=0 / deadzone=21,11 / chroma_qp_offset=-2 / threads=3 / nr=0 / decimate=1 / mbaff=0 / bframes=3 / b_pyramid=1 / b_adapt=2 / b_bias=0 / direct=3 / wpredb=1 / keyint=250 / keyint_min=25 / scenecut=40(pre) / rc=crf / crf=20.0 / qcomp=0.60 / qpmin=10 / qpmax=51 / qpstep=4 / vbv_maxrate=25000 / vbv_bufsize=14000 / ip_ratio=1.40 / pb_ratio=1.30 / aq=1:1.00

Audio
ID                               : 2
Format                           : AC-3
Format/Info                      : Audio Coding 3
Codec ID                         : A_AC3
Duration                         : 1h 12mn
Bit rate mode                    : Constant
Bit rate                         : 384 Kbps
Channel(s)                       : 6 channels
Channel positions                : Front: L C R, Surround: L R, LFE
Sampling rate                    : 48.0 KHz
Video delay                      : 200ms
Stream size                      : 198 MiB (16%)
Language                         : Swedish

Text #1
ID                               : 3
Format                           : VobSub
Codec ID                         : S_VOBSUB
Codec ID/Info                    : The same subtitle format used on DVDs
Language                         : Swedish

Text #2
ID                               : 4
Format                           : VobSub
Codec ID                         : S_VOBSUB
Codec ID/Info                    : The same subtitle format used on DVDs
Language                         : English

Menu
00:00:00.000                     : en:Chapter 1
00:16:06.840                     : en:Chapter 2
00:35:57.440                     : en:Chapter 3
00:52:13.400                     : en:Chapter 4

